<svg width="817" height="400" viewBox="0 0 217 71" fill="none" xmlns="http://www.w3.org/2000/svg">
<path d="M0 45.8554L15.819 1.78027H23.6424L39.4692 45.8554H31.4033L27.8671 35.6709H11.5083L7.97208 45.8554H0ZM13.7849 29.162H25.6452L20.6148 14.9556C20.2321 13.8541 19.9314 12.7255 19.7151 11.5791C19.4672 12.7219 19.1537 13.8493 18.7763 14.9556L13.7849 29.162Z" fill="#0270BD"/>
<path d="M44.4298 16.0721V12.4595C44.4298 4.38429 48.6857 1.00782 55.0931 1.00782C56.3566 0.990283 57.6189 1.0904 58.864 1.3069V7.60335H56.3292C52.6131 7.60335 51.7134 9.53164 51.7134 12.4831V16.0957H59.1144L61.6805 22.2505H51.6743V45.8622H44.4298V22.2505H40.1738V16.0721H44.4298Z" fill="#0270BD"/>
<path d="M79.0805 26.4213L71.0459 48.1283L63.4415 26.4213H55.7119L67.6348 57.4549L66.7977 59.6823C65.5382 63.1847 63.7388 63.8458 60.8597 63.8458H57.0263L59.5923 70.5122C60.3717 70.601 61.1551 70.6483 61.9394 70.6539C66.7977 70.6539 69.9115 68.3635 72.1098 62.7833L86.6145 26.3662L79.0805 26.4213Z" fill="#012063"/>
<path d="M100.611 25.5156C92.5846 25.5156 87.3116 29.7342 87.3116 36.1881H93.5703C93.5703 33.0399 95.9643 31.2454 100.283 31.2454C103.999 31.2454 106.393 32.8746 106.393 36.9122V37.5733L97.529 38.2345C90.4879 38.7775 86.5762 42.217 86.5762 47.6791C86.5762 53.283 90.4097 56.9664 96.6997 56.9664C101.316 56.9664 105.305 54.8571 106.589 51.7797L107.128 56.1793H113.544V38.077C113.497 29.8602 108.584 25.5156 100.611 25.5156ZM106.401 44.1452C106.401 48.7259 103.522 51.4413 99.0311 51.4413C95.7374 51.4413 93.938 50.1111 93.938 47.4037C93.938 44.9874 95.6748 43.4684 100.197 43.0591L106.401 42.579V44.1452Z" fill="#01CDFF"/>
<path d="M136.043 25.5156C132.03 25.5156 128.431 27.2629 126.577 30.238L125.974 26.3814H119.199V56.2029H126.514V40.1391C126.514 35.3223 129.268 32.182 133.766 32.182C137.537 32.182 140.025 34.5983 140.025 39.6039V56.2029H147.34V37.8803C147.309 30.1593 143.475 25.5156 136.043 25.5156Z" fill="#0270BD"/>
<path d="M175.067 30.5217C173.331 27.3263 169.857 25.4609 165.421 25.4609C156.972 25.4609 151.339 31.9699 151.339 40.6511C151.339 49.3324 156.854 55.6052 165.241 55.6052C169.497 55.6052 173.151 53.8579 175.013 51.0875V56.0302C175.013 60.9729 171.774 64.1684 166.743 64.1684C162.245 64.1684 159.311 61.878 158.834 58.0215H151.519C152.418 65.9707 158.231 70.8347 166.743 70.8347C176.327 70.8347 182.288 64.6406 182.288 54.7001V26.4211H175.513L175.067 30.5217ZM166.681 49.2143C161.885 49.2143 158.709 45.4758 158.709 40.4701C158.709 35.5904 161.838 31.9069 166.681 31.9069C171.774 31.9069 174.833 35.4093 174.833 40.4701C174.833 45.6489 171.711 49.2143 166.681 49.2143Z" fill="#0270BD"/>
<path d="M208.409 26.4209V42.0361C208.409 47.7029 206.188 50.4182 201.572 50.4182C197.496 50.4182 195.313 48.1279 195.313 42.4611V26.4209H188.006V45.0505C188.006 52.3465 192.019 56.9902 198.849 56.9902C202.808 56.9902 206.673 55.054 208.441 52.2678L208.973 56.2031H215.748V26.4209H208.409Z" fill="#0270BD"/>
<path d="M207.509 20.031V14.0494L210.263 11.2554H216.24V8.67383H209.113L205.068 12.8295V20.031H207.509Z" fill="#01CDFF"/>
<path d="M205.076 0V5.9895L202.33 8.78355H196.345V11.3651H203.472L207.524 7.20156V0H205.076Z" fill="#012063"/>
</svg>
